tugOfWar_states
version=1
nRows=100
nColumns=7
inDegrees=yes

# SIMM Motion File Header:
name tugOfWar_states
datacolumns 7
datarows 100
otherdata 1
range 0.00000000 0.11656763
endheader
time	/jointset/ground_block/block_tz/value	/jointset/ground_block/block_tz/speed	/forceset/muscle1/activation	/forceset/muscle1/fiber_length	/forceset/muscle2/activation	/forceset/muscle2/fiber_length
      0.00000000	      0.00000000	      0.00000000	      1.00000000	      0.09206493	      0.05000000	      0.09779591
      0.00220883	     -0.00011355	     -0.10225104	      0.91799017	      0.09207328	      0.04874795	      0.09779948
      0.00397605	     -0.00036343	     -0.17955971	      0.86040296	      0.09208613	      0.04777165	      0.09784391
      0.00561485	     -0.00071231	     -0.24509185	      0.81233519	      0.09209477	      0.04688593	      0.09808444
      0.00725365	     -0.00116269	     -0.30320628	      0.76868199	      0.09209421	      0.04601861	      0.09848888
      0.00992262	     -0.00207850	     -0.37892920	      0.70558482	      0.09203741	      0.04464431	      0.09936515
      0.01259159	     -0.00316239	     -0.42898409	      0.65072528	      0.09185482	      0.04331574	      0.10043730
      0.01493474	     -0.00419901	     -0.45327192	      0.60815983	      0.09152512	      0.04218563	      0.10147380
      0.01727789	     -0.00527765	     -0.46598361	      0.56999141	      0.09103470	      0.04108822	      0.10256114
      0.01962103	     -0.00637770	     -0.47214091	      0.53558116	      0.09041787	      0.04002240	      0.10367559
      0.02253416	     -0.00775764	     -0.47449933	      0.49726461	      0.08952417	      0.03873977	      0.10507613
      0.02608235	     -0.00943931	     -0.47275709	      0.45620578	      0.08831061	      0.03723845	      0.10678410
      0.02963054	     -0.01110903	     -0.46804205	      0.42025246	      0.08701373	      0.03580090	      0.10847249
      0.03181868	     -0.01212903	     -0.46415001	      0.40023521	      0.08618857	      0.03494480	      0.10951049
      0.03400682	     -0.01313991	     -0.45973358	      0.38165429	      0.08535103	      0.03411107	      0.11052960
      0.03750126	     -0.01473287	     -0.45179444	      0.35460517	      0.08399770	      0.03282431	      0.11214621
      0.03924741	     -0.01551808	     -0.44753862	      0.34216613	      0.08331738	      0.03220123	      0.11292347
      0.04099356	     -0.01629569	     -0.44308234	      0.33037299	      0.08263591	      0.03159101	      0.11370458
      0.04421945	     -0.01771123	     -0.43444098	      0.31012827	      0.08137693	      0.03049643	      0.11512165
      0.04649447	     -0.01869238	     -0.42807329	      0.29693828	      0.08049116	      0.02974924	      0.11609274
      0.04876949	     -0.01965879	     -0.42146457	      0.28455734	      0.07960873	      0.02902182	      0.11706293
      0.05053760	     -0.02039936	     -0.41621663	      0.27544925	      0.07892600	      0.02846975	      0.11778354
      0.05230570	     -0.02113053	     -0.41082092	      0.26675854	      0.07824655	      0.02792900	      0.11851124
      0.05407381	     -0.02185206	     -0.40532097	      0.25845845	      0.07757088	      0.02739929	      0.11921600
      0.05642134	     -0.02279481	     -0.39780410	      0.24800012	      0.07668044	      0.02671263	      0.12015480
      0.05774332	     -0.02331786	     -0.39350763	      0.24237502	      0.07618273	      0.02633410	      0.12065048
      0.05906529	     -0.02383518	     -0.38911896	      0.23692951	      0.07568795	      0.02596133	      0.12115698
      0.06134677	     -0.02471416	     -0.38138628	      0.22793082	      0.07484152	      0.02533123	      0.12200873
      0.06300425	     -0.02534155	     -0.37562525	      0.22169215	      0.07423302	      0.02488374	      0.12262070
      0.06468661	     -0.02596849	     -0.36967443	      0.21560148	      0.07362137	      0.02443818	      0.12321573
      0.06604547	     -0.02646749	     -0.36475265	      0.21085090	      0.07313204	      0.02408451	      0.12370865
      0.06740434	     -0.02695976	     -0.35977384	      0.20624433	      0.07264713	      0.02373630	      0.12417042
      0.06876320	     -0.02744520	     -0.35468357	      0.20177571	      0.07216689	      0.02339346	      0.12464743
      0.07012206	     -0.02792367	     -0.34953544	      0.19743935	      0.07169153	      0.02305588	      0.12508883
      0.07127796	     -0.02832512	     -0.34505395	      0.19385069	      0.07129119	      0.02277281	      0.12548736
      0.07243387	     -0.02872137	     -0.34053347	      0.19035065	      0.07089470	      0.02249343	      0.12585385
      0.07358978	     -0.02911234	     -0.33592424	      0.18693621	      0.07050218	      0.02221770	      0.12623455
      0.07474568	     -0.02949794	     -0.33126425	      0.18360449	      0.07011380	      0.02194555	      0.12659104
      0.07590159	     -0.02987812	     -0.32651250	      0.18035274	      0.06972967	      0.02167694	      0.12696280
      0.07705750	     -0.03025277	     -0.32171736	      0.17717831	      0.06934996	      0.02141181	      0.12729935
      0.07801585	     -0.03055915	     -0.31765541	      0.17460324	      0.06903858	      0.02119461	      0.12760589
      0.07897421	     -0.03086162	     -0.31356932	      0.17207821	      0.06873040	      0.02097973	      0.12788014
      0.07993257	     -0.03116014	     -0.30941377	      0.16960188	      0.06842550	      0.02076717	      0.12816924
      0.08112561	     -0.03152617	     -0.30419224	      0.16658529	      0.06805064	      0.02050573	      0.12849641
      0.08192763	     -0.03176871	     -0.30060937	      0.16459749	      0.06780164	      0.02033193	      0.12874205
      0.08272965	     -0.03200836	     -0.29701120	      0.16264112	      0.06755510	      0.02015970	      0.12896027
      0.08386759	     -0.03234340	     -0.29182408	      0.15991799	      0.06720962	      0.01991796	      0.12928428
      0.08472050	     -0.03259063	     -0.28790605	      0.15791640	      0.06695405	      0.01973878	      0.12950018
      0.08557341	     -0.03283450	     -0.28391916	      0.15594779	      0.06670143	      0.01956131	      0.12974240
      0.08642632	     -0.03307495	     -0.27991404	      0.15401141	      0.06645182	      0.01938551	      0.12995151
      0.08727924	     -0.03331196	     -0.27583616	      0.15210655	      0.06620526	      0.01921139	      0.13019182
      0.08813215	     -0.03354548	     -0.27175310	      0.15023251	      0.06596180	      0.01903891	      0.13038201
      0.08881099	     -0.03372883	     -0.26843532	      0.14876253	      0.06577028	      0.01890280	      0.13057555
      0.08948983	     -0.03390993	     -0.26511581	      0.14731131	      0.06558077	      0.01876771	      0.13073486
      0.09038780	     -0.03414600	     -0.26066320	      0.14541990	      0.06533323	      0.01859058	      0.13096541
      0.09113893	     -0.03434039	     -0.25692248	      0.14386206	      0.06512896	      0.01844377	      0.13112854
      0.09189005	     -0.03453195	     -0.25311748	      0.14232587	      0.06492725	      0.01829818	      0.13132735
      0.09264117	     -0.03472064	     -0.24931673	      0.14081093	      0.06472813	      0.01815379	      0.13147569
      0.09327391	     -0.03487736	     -0.24605275	      0.13955094	      0.06456244	      0.01803309	      0.13164384
      0.09390666	     -0.03503202	     -0.24279192	      0.13830552	      0.06439862	      0.01791324	      0.13177455
      0.09467024	     -0.03521589	     -0.23880238	      0.13682162	      0.06420345	      0.01776971	      0.13195951
      0.09533168	     -0.03537270	     -0.23534291	      0.13555281	      0.06403664	      0.01764636	      0.13208479
      0.09599313	     -0.03552721	     -0.23182764	      0.13429912	      0.06387194	      0.01752391	      0.13224836
      0.09665457	     -0.03567939	     -0.22831940	      0.13306031	      0.06370937	      0.01740235	      0.13236666
      0.09731601	     -0.03582923	     -0.22474854	      0.13183616	      0.06354895	      0.01728168	      0.13253244
      0.09788706	     -0.03595670	     -0.22168016	      0.13079089	      0.06341219	      0.01717820	      0.13262603
      0.09845811	     -0.03608240	     -0.21856575	      0.12975622	      0.06327705	      0.01707537	      0.13275570
      0.09902917	     -0.03620632	     -0.21544890	      0.12873201	      0.06314354	      0.01697319	      0.13286119
      0.09978322	     -0.03636722	     -0.21128364	      0.12739536	      0.06296977	      0.01683924	      0.13302867
      0.10030483	     -0.03647668	     -0.20840867	      0.12648109	      0.06285125	      0.01674723	      0.13310753
      0.10082644	     -0.03658463	     -0.20549642	      0.12557517	      0.06273412	      0.01665575	      0.13321699
      0.10151902	     -0.03672561	     -0.20162569	      0.12438506	      0.06258075	      0.01653509	      0.13333289
      0.10207176	     -0.03683619	     -0.19849668	      0.12344551	      0.06246013	      0.01643945	      0.13345513
      0.10262450	     -0.03694505	     -0.19537820	      0.12251497	      0.06234110	      0.01634439	      0.13353810
      0.10317725	     -0.03705217	     -0.19222079	      0.12159330	      0.06222365	      0.01624991	      0.13365238
      0.10372999	     -0.03715755	     -0.18906965	      0.12068040	      0.06210780	      0.01615600	      0.13373383
      0.10428273	     -0.03726118	     -0.18588090	      0.11977616	      0.06199357	      0.01606265	      0.13384598
      0.10483547	     -0.03736304	     -0.18270222	      0.11888048	      0.06188094	      0.01596987	      0.13392399
      0.10538821	     -0.03746314	     -0.17948474	      0.11799323	      0.06176994	      0.01587765	      0.13403172
      0.10594095	     -0.03756146	     -0.17627803	      0.11711432	      0.06166056	      0.01578598	      0.13410751
      0.10649369	     -0.03765800	     -0.17303312	      0.11624364	      0.06155281	      0.01569487	      0.13421064
      0.10704643	     -0.03775275	     -0.16979939	      0.11538110	      0.06144670	      0.01560431	      0.13428440
      0.10759917	     -0.03784570	     -0.16652858	      0.11452658	      0.06134223	      0.01551429	      0.13438254
      0.10815191	     -0.03793684	     -0.16326860	      0.11368000	      0.06123941	      0.01542482	      0.13445436
      0.10870465	     -0.03802618	     -0.15997302	      0.11284125	      0.06113824	      0.01533588	      0.13454793
      0.10925739	     -0.03811369	     -0.15668856	      0.11201024	      0.06103873	      0.01524748	      0.13461777
      0.10981013	     -0.03819939	     -0.15337029	      0.11118688	      0.06094088	      0.01515961	      0.13470581
      0.11032437	     -0.03827746	     -0.15028927	      0.11042764	      0.06085134	      0.01507834	      0.13476675
      0.11083861	     -0.03835395	     -0.14718050	      0.10967488	      0.06076324	      0.01499752	      0.13484871
      0.11133908	     -0.03842685	     -0.14416522	      0.10894841	      0.06067889	      0.01491930	      0.13490523
      0.11183954	     -0.03849824	     -0.14112473	      0.10822794	      0.06059591	      0.01484150	      0.13497858
      0.11237321	     -0.03857269	     -0.13788979	      0.10746619	      0.06050894	      0.01475901	      0.13503866
      0.11290687	     -0.03864541	     -0.13462719	      0.10671110	      0.06042353	      0.01467700	      0.13511862
      0.11337325	     -0.03870753	     -0.13178955	      0.10605659	      0.06035018	      0.01460571	      0.13516532
      0.11383964	     -0.03876833	     -0.12893156	      0.10540706	      0.06027801	      0.01453479	      0.13522231
      0.11459653	     -0.03886416	     -0.12429342	      0.10436341	      0.06016345	      0.01442045	      0.13530248
      0.11505470	     -0.03892046	     -0.12146193	      0.10373787	      0.06009564	      0.01435169	      0.13537231
      0.11551287	     -0.03897546	     -0.11865145	      0.10311696	      0.06002898	      0.01428328	      0.13541301
      0.11597105	     -0.03902918	     -0.11582297	      0.10250064	      0.05996347	      0.01421520	      0.13545935
      0.11656763	     -0.03909717	     -0.11212148	      0.10170494	      0.05987991	      0.01412707	      0.13553994
